// Framework
 Table "audit" {
 	"id" integer  [default: `nextval('audit_id_seq'::regclass)`]
 	"uuid" varchar(255)
 	"created_by_id" bigint  [ref: > users.id]
 	"last_modified_by_id" bigint [ref: > users.id]
 	"created_date_time" timestamp
 	"last_modified_date_time" timestamp
 	Note: 'Deprecated - A common table for audit information of all other tables - except a few where the table themselves keep the audit information. It is not an audit log of all changes over the life time of a table row - rather it is only creation and last modification information.'
 }

// Task

Table "task" {
 	"id" integer
 	"organisation_id" integer
 	"uuid" varchar(255) [default: `uuid_generate_v4()`]
 	"is_voided" boolean  [default: false]
 	"version" integer
 	"created_by_id" bigint
 	"last_modified_by_id" bigint
 	"created_date_time" timestamp
 	"last_modified_date_time" timestamp
 	"legacy_id" varchar
 	"name" text
 	"task_status_id" integer
 	"scheduled_on" timestamp
 	"completed_on" timestamp
 	"assigned_user_id" integer
 	"metadata" jsonb
 	"subject_id" bigint
 	"observations" jsonb
 	"task_type_id" integer
 	"manual_update_history" text
 }

 Table "task_status" {
 	"id" integer
 	"organisation_id" integer
 	"uuid" varchar(255) [default: `uuid_generate_v4()`]
 	"is_voided" boolean  [default: false]
 	"version" integer
 	"created_by_id" bigint
 	"last_modified_by_id" bigint
 	"created_date_time" timestamp
 	"last_modified_date_time" timestamp
 	"name" text
 	"task_type_id" integer
 	"is_terminal" boolean
 }

 Table "task_type" {
 	"id" integer
 	"organisation_id" integer
 	"uuid" varchar(255) [default: `uuid_generate_v4()`]
 	"is_voided" boolean  [default: false]
 	"version" integer
 	"created_by_id" bigint
 	"last_modified_by_id" bigint
 	"created_date_time" timestamp
 	"last_modified_date_time" timestamp
 	"name" text
 	"type" text
 	"metadata_search_fields" ARRAY
 }

 Table "task_unassignment" {
 	"id" integer
 	"organisation_id" integer
 	"uuid" varchar(255) [default: `uuid_generate_v4()`]
 	"is_voided" boolean  [default: false]
 	"version" integer
 	"created_by_id" bigint
 	"last_modified_by_id" bigint
 	"created_date_time" timestamp
 	"last_modified_date_time" timestamp
 	"task_id" bigint
 	"unassigned_user_id" integer
 }

 TableGroup "Task (including txn data)" {
      task
      task_status
      task_type
      task_unassignment
    }

// Messaging
Table "manual_message" {
 	"id" integer
 	"uuid" varchar(255)
 	"organisation_id" integer
 	"is_voided" boolean  [default: false]
 	"message_template_id" text
 	"parameters" ARRAY
 	"version" integer
 	"created_by_id" bigint
 	"last_modified_by_id" bigint
 	"created_date_time" timestamp
 	"last_modified_date_time" timestamp
 	"next_trigger_details" json
 }

Table "message_receiver" {
 	"id" integer
 	"uuid" varchar(255)
 	"receiver_type" text
 	"organisation_id" integer
 	"is_voided" boolean  [default: false]
 	"external_id" text
 	"created_by_id" bigint
 	"last_modified_by_id" bigint
 	"created_date_time" timestamp
 	"last_modified_date_time" timestamp
 	"version" integer
 	"receiver_id" integer
 }

 Table "message_request_queue" {
 	"id" integer
 	"uuid" varchar(255)
 	"organisation_id" integer
 	"message_rule_id" bigint
 	"message_receiver_id" bigint
 	"scheduled_date_time" timestamp
 	"delivered_date_time" timestamp
 	"delivery_status" text
 	"is_voided" boolean  [default: false]
 	"created_by_id" bigint
 	"last_modified_by_id" bigint
 	"created_date_time" timestamp
 	"last_modified_date_time" timestamp
 	"version" integer
 	"entity_id" integer
 	"manual_message_id" bigint
 }

 Table "message_rule" {
 	"id" integer
 	"uuid" varchar(255)
 	"name" text
 	"message_rule" text
 	"schedule_rule" text
 	"organisation_id" integer
 	"is_voided" boolean  [default: false]
 	"entity_type" text
 	"message_template_id" text
 	"version" integer
 	"created_by_id" bigint
 	"last_modified_by_id" bigint
 	"created_date_time" timestamp
 	"last_modified_date_time" timestamp
 	"entity_type_id" integer
 	"receiver_type" text
 }

 Table "msg91_config" {
 	"id" integer
 	"uuid" varchar(255)
 	"auth_key" varchar(255)
 	"otp_sms_template_id" varchar(255)
 	"otp_length" smallint
 	"organisation_id" integer
 	"audit_id" integer
 	"is_voided" boolean  [default: false]
 	"version" integer
 	"created_by_id" bigint
 	"last_modified_by_id" bigint
 	"created_date_time" timestamp
 	"last_modified_date_time" timestamp
 }

Table "news" {
 	"id" integer
 	"organisation_id" bigint
 	"uuid" varchar(255)
 	"title" text
 	"content" text
 	"contenthtml" text
 	"hero_image" text
 	"published_date" timestamp
 	"is_voided" boolean  [default: false]
 	"audit_id" bigint
 	"version" bigint  [default: 0]
 	"created_by_id" bigint
 	"last_modified_by_id" bigint
 	"created_date_time" timestamp
 	"last_modified_date_time" timestamp
 }

 TableGroup "Messaging" {
     manual_message
     message_receiver
     message_request_queue
     message_rule
     msg91_config
     news
   }

// Misc
Table "external_system_config" {
 	"id" integer
 	"organisation_id" integer
 	"uuid" varchar(255) [default: `uuid_generate_v4()`]
 	"is_voided" boolean  [default: false]
 	"version" integer
 	"created_by_id" bigint
 	"last_modified_by_id" bigint
 	"created_date_time" timestamp
 	"last_modified_date_time" timestamp
 	"system_name" varchar(255)
 	"config" jsonb
 }

// Documentation
Table "documentation" {
 	"id" integer
 	"uuid" varchar(255)
 	"name" text
 	"organisation_id" integer
 	"is_voided" boolean  [default: false]
 	"version" integer
 	"created_by_id" bigint
 	"last_modified_by_id" bigint
 	"created_date_time" timestamp
 	"last_modified_date_time" timestamp
 	"parent_id" integer
 }

 Table "documentation_item" {
 	"id" integer
 	"uuid" varchar(255)
 	"documentation_id" integer
 	"language" text
 	"content" text
 	"contenthtml" text
 	"organisation_id" integer
 	"is_voided" boolean  [default: false]
 	"version" integer
 	"created_by_id" bigint
 	"last_modified_by_id" bigint
 	"created_date_time" timestamp
 	"last_modified_date_time" timestamp
 }

// Comment
Table "comment" {
 	"id" integer
 	"organisation_id" bigint
 	"uuid" varchar(255)
 	"text" text
 	"subject_id" bigint
 	"is_voided" boolean  [default: false]
 	"audit_id" bigint
 	"version" bigint  [default: 0]
 	"comment_thread_id" bigint
 	"created_by_id" bigint
 	"last_modified_by_id" bigint
 	"created_date_time" timestamp
 	"last_modified_date_time" timestamp
 }

 Table "comment_thread" {
 	"id" integer
 	"organisation_id" bigint
 	"uuid" varchar(255)
 	"status" text
 	"open_date_time" timestamp
 	"resolved_date_time" timestamp
 	"is_voided" boolean  [default: false]
 	"audit_id" bigint
 	"version" bigint  [default: 0]
 	"created_by_id" bigint
 	"last_modified_by_id" bigint
 	"created_date_time" timestamp
 	"last_modified_date_time" timestamp
 }

// offline/mobile dashboard
Table "dashboard" {
 	"id" integer
 	"uuid" varchar(255)
 	"name" varchar(255)
 	"description" text
 	"is_voided" boolean  [default: false]
 	"version" integer
 	"organisation_id" integer
 	"audit_id" integer
 	"created_by_id" bigint
 	"last_modified_by_id" bigint
 	"created_date_time" timestamp
 	"last_modified_date_time" timestamp
 }

 Table "dashboard_card_mapping" {
 	"id" integer
 	"uuid" varchar(255)
 	"dashboard_id" bigint
 	"card_id" bigint
 	"display_order" number
 	"is_voided" boolean  [default: false]
 	"version" integer
 	"organisation_id" integer
 	"audit_id" integer
 	"created_by_id" bigint
 	"last_modified_by_id" bigint
 	"created_date_time" timestamp
 	"last_modified_date_time" timestamp
 }

 Table "dashboard_filter" {
 	"id" integer
 	"dashboard_id" integer
 	"filter_config" jsonb
 	"uuid" varchar(255)
 	"organisation_id" integer
 	"is_voided" boolean  [default: false]
 	"version" integer
 	"created_by_id" bigint
 	"last_modified_by_id" bigint
 	"created_date_time" timestamp
 	"last_modified_date_time" timestamp
 	"name" varchar(255)
 }

 Table "dashboard_section" {
 	"id" integer
 	"uuid" text
 	"name" text
 	"description" text
 	"dashboard_id" bigint
 	"view_type" text
 	"display_order" number
 	"is_voided" boolean  [default: false]
 	"version" integer
 	"organisation_id" bigint
 	"audit_id" bigint
 	"created_by_id" bigint
 	"last_modified_by_id" bigint
 	"created_date_time" timestamp
 	"last_modified_date_time" timestamp
 }

 Table "dashboard_section_card_mapping" {
 	"id" integer
 	"uuid" text
 	"dashboard_section_id" bigint
 	"card_id" bigint
 	"display_order" number
 	"is_voided" boolean  [default: false]
 	"version" integer
 	"organisation_id" bigint
 	"audit_id" bigint
 	"created_by_id" bigint
 	"last_modified_by_id" bigint
 	"created_date_time" timestamp
 	"last_modified_date_time" timestamp
 }

 Table "standard_report_card_type" {
  	"id" integer
  	"uuid" text
  	"name" text
  	"description" text
  	"is_voided" boolean  [default: false]
  	"created_date_time" timestamp
  	"last_modified_date_time" timestamp
  }

 Table "group_dashboard" {
  	"id" integer
  	"uuid" text
  	"organisation_id" bigint
  	"is_primary_dashboard" boolean  [default: false]
  	"audit_id" bigint
  	"version" bigint  [default: 0]
  	"group_id" bigint
  	"dashboard_id" bigint
  	"is_voided" boolean  [default: false]
  	"created_by_id" bigint
  	"last_modified_by_id" bigint
  	"created_date_time" timestamp
  	"last_modified_date_time" timestamp
  }

  Table "report_card" {
   	"id" integer
   	"uuid" varchar(255)
   	"name" varchar(255)
   	"query" text
   	"description" text
   	"colour" varchar(20)
   	"is_voided" boolean  [default: false]
   	"version" integer
   	"organisation_id" integer
   	"audit_id" integer
   	"standard_report_card_type_id" bigint
   	"icon_file_s3_key" text
   	"created_by_id" bigint
   	"last_modified_by_id" bigint
   	"created_date_time" timestamp
   	"last_modified_date_time" timestamp
   }

// ETL
Table "table_metadata" {
 	"id" integer
 	"name" text
 	"type" text
 	"schema_name" text
 	"subject_type_uuid" varchar(255)
 	"program_uuid" varchar(255)
 	"encounter_type_uuid" varchar(255)
 	"form_uuid" varchar(255)
 	"group_subject_type_uuid" varchar(255)
 	"member_subject_type_uuid" varchar(255)
 	"repeatable_question_group_concept_uuid" varchar(255)
 }

Table "column_metadata" {
 	"id" integer
 	"table_id" integer
 	"name" text
 	"type" text
 	"concept_id" integer
 	"concept_type" text
 	"concept_uuid" varchar(255)
 	"schema_name" text
 	"parent_concept_uuid" varchar(255)
 }

 Table "scheduled_job_run" {
  	"id" integer
  	"job_name" varchar(255)
  	"started_at" timestamp
  	"ended_at" timestamp
  	"error_message" text
  	"success" boolean
  }

  Table "entity_sync_status" {
   	"id" integer
   	"db_user" text
   	"table_metadata_id" integer
   	"last_sync_time" timestamp
   	"sync_status" text
   	"schema_name" text
   }

// Account
Table "account" {
 	"id" integer  [default: `nextval('account_id_seq'::regclass)`]
 	"name" varchar(255)
 }

 Table "account_admin" {
 	"id" integer  [default: `nextval('account_admin_id_seq'::regclass)`]
 	"name" varchar(255)
 	"account_id" integer [ref: > account.id]
 	"admin_id" integer
 }

TableGroup Account {
    account
    account_admin
}


// Organisation
Table "organisation_group" {
 	"id" integer  [default: `nextval('organisation_group_id_seq'::regclass)`]
 	"name" varchar(255)
 	"db_user" varchar(255)
 	"account_id" integer [ref: > account.id]
 }

 Table "organisation_group_organisation" {
 	"id" integer  [default: `nextval('organisation_group_organisation_id_seq'::regclass)`]
 	"name" varchar(255)
 	"organisation_group_id" integer [ref: > organisation_group.id]
 	"organisation_id" integer [ref: > organisation.id]
 	Note: ''
 }

Table "organisation" {
  	"id" integer  [default: `nextval('organisation_id_seq'::regclass)`]
  	"name" varchar(255)
  	"db_user" varchar(255) [note: 'The database user for this organisation. using row-level security this database user is provided only access to organisational data.']
  	"uuid" varchar(255)
  	"parent_organisation_id" integer [ref: > organisation.id]
  	"is_voided" boolean  [default: false]
  	"media_directory" text [note: "Name of the directory in S3 where this organisations files are stored"]
  	"username_suffix" text [note: 'The suffix which is appended to each user in the organisation, to keep them unique across organisations']
  	"account_id" integer  [default: 1, ref: > account.id]
  	Note: 'Organisation which is using the Avni (or a tenant in a multi-tenant system). If you are logged in using organisation database user you will see only your organisation or group if you are master organisation in the group.'
  }

TableGroup Organisation {
    organisation
    organisation_group
    organisation_group_organisation
}



// Work area / Location

 Table "address_level" {
 	"id" integer  [default: `nextval('address_level_id_seq'::regclass)`]
 	"title" varchar(255)
 	"uuid" varchar(255)
 	"version" integer
 	"organisation_id" integer  [default: 1, ref: > organisation.id]
 	"audit_id" integer   [ref: > audit.id]
 	"is_voided" boolean  [default: false]
 	"type_id" integer [ref: > address_level_type.id]
 	"lineage" varchar [note: 'Postgres ltree data type. Since address levels can be hierarchical like district-block-village, this column helps in querying such information easy. This is semantically duplicate of parent_id based hierarchy.']
 	"parent_id" integer [ref: > address_level.id]
 	Note: 'In Avni this is also referred to as location in some places.'
 }

 Table "address_level_type" {
  	"id" integer  [default: `nextval('address_level_type_id_seq'::regclass)`]
  	"uuid" varchar(255) [default: `uuid_generate_v4()`]
  	"name" varchar(255)
  	"is_voided" boolean  [default: false]
  	"organisation_id" integer [ref: > organisation.id]
  	"version" integer
  	"audit_id" integer [ref: > audit.id]
  	"level" number  [default: 0]
  	"parent_id" integer [ref: > address_level_type.id]
  }

  Table "catchment" {
   	"id" integer  [default: `nextval('catchment_id_seq'::regclass)`]
   	"name" varchar(255)
   	"uuid" varchar(255)
   	"version" integer
   	"organisation_id" integer  [default: 1 ,ref: > organisation.id]
   	"type" varchar(1024) [default: "'Villages'::character varying"]
   	"audit_id" integer   [ref: > audit.id]
   	"is_voided" boolean  [default: false]
   	Note: 'Catchment is a group of locations constructed to assign to users as their work area. catchment_address_mapping table is used to create this relationship.'
   }

Table "catchment_address_mapping" {
 	"id" integer  [default: `nextval('catchment_address_mapping_id_seq'::regclass)`]
 	"catchment_id" bigint [ref: > catchment.id]
 	"addresslevel_id" bigint [ref: > address_level.id]
 }

  Table "location_location_mapping" {
  	"id" integer  [default: `nextval('location_location_mapping_id_seq'::regclass)`]
  	"location_id" bigint [ref: > address_level.id]
  	"parent_location_id" bigint [ref: > address_level.id]
  	"version" integer
  	"audit_id" bigint [ref: > audit.id]
  	"uuid" varchar(255)
  	"is_voided" boolean  [default: false]
  	"organisation_id" bigint [ref: > organisation.id]
  }

TableGroup "Work Area" {
    address_level
    address_level_type
    catchment
    catchment_address_mapping
    location_location_mapping
}



// User
 Table "user_group" {
 	"id" integer  [default: `nextval('user_group_id_seq'::regclass)`]
 	"uuid" varchar(255)
 	"user_id" integer
 	"group_id" integer [ref: > user_group.id]
 	"is_voided" boolean  [default: false]
 	"version" integer
 	"organisation_id" integer [ref: > organisation.id]
 	"audit_id" integer   [ref: > audit.id]
 }

 Table "users" {
 	"id" integer  [default: `nextval('users_id_seq'::regclass)`]
 	"uuid" varchar(255)
 	"username" varchar(255)
 	"organisation_id" integer [ref: > organisation.id]
 	"created_by_id" bigint  [default: 1, ref: > users.id]
 	"last_modified_by_id" bigint  [default: 1 , ref: > users.id]
 	"created_date_time" timestamp  [default: `now()`]
 	"last_modified_date_time" timestamp  [default: `now()`]
 	"is_voided" boolean  [default: false]
 	"catchment_id" integer [ref: > catchment.id]
 	"is_org_admin" boolean  [default: false]
 	"operating_individual_scope" varchar(255)
 	"settings" jsonb
 	"email" varchar(320)
 	"phone_number" varchar(32)
 	"disabled_in_cognito" boolean  [default: false]
 	"name" varchar(255)
 }

Table "user_facility_mapping" {
 	"id" integer  [default: `nextval('user_facility_mapping_id_seq'::regclass)`]
 	"version" integer  [default: 1]
 	"audit_id" bigint [ref: > audit.id]
 	"uuid" varchar(255)
 	"is_voided" boolean  [default: false]
 	"organisation_id" bigint [ref: > organisation.id]
 	"user_id" bigint [ref: > users.id]
 }

 TableGroup Users {
    users
    user_group
    user_facility_mapping
 }



// User-defined data model

 Table "concept" {
 	"id" integer  [default: `nextval('concept_id_seq'::regclass)`]
 	"data_type" varchar(255) [note: 'Name of data types like text, date, etc. Full list here https://avni.readme.io/docs/concepts']
 	"high_absolute" number [note: 'Highest value that is valid, for numeric data type']
 	"high_normal" number [note: 'Value above which it should be considered abnormal, for numeric data type']
 	"low_absolute" number [note: 'Lowest value that is valid for numeric data type, for numeric data type']
 	"low_normal" number [note: 'Value below which it should be considered abnormal, for numeric data type']
 	"name" varchar(255)
 	"uuid" varchar(255)
 	"version" integer
 	"unit" varchar(50) [note: 'Unit in which the numeric value is captured. e.g. mg/ml, fahrenheit']
 	"organisation_id" integer  [default: 1 ,ref: > organisation.id]
 	"is_voided" boolean  [default: false]
 	"audit_id" integer   [ref: > audit.id]
 	"key_values" jsonb
 	"active" boolean  [default: true]
 	Note: "A concept when its data type is 'Coded' can have answers which are other concepts."
 }

 Table "concept_answer" {
 	"id" integer  [default: `nextval('concept_answer_id_seq'::regclass)`]
 	"concept_id" bigint [ref: > concept.id]
 	"answer_concept_id" bigint [ref: > concept.id]
 	"uuid" varchar(255)
 	"version" integer
 	"answer_order" number
 	"organisation_id" integer  [default: 1 ,ref: > organisation.id]
 	"abnormal" boolean  [default: false]
 	"is_voided" boolean  [default: false]
 	"uniq" boolean  [default: false]
 	"audit_id" integer   [ref: > audit.id]
 	Note: "A concept when its data type is 'Coded' can have answers which are other concepts."
 }

Table "decision_concept" {
 	"id" integer
 	"concept_id" bigint
 	"form_id" bigint
 }

 Table "program" {
 	"id" smallint  [default: `nextval('program_id_seq'::regclass)`]
 	"uuid" varchar(255)
 	"name" varchar(255)
 	"version" integer
 	"colour" varchar(20) [note: 'Colour to be used in the apps for this program. Users should ideally assign different colors to different programs.']
 	"organisation_id" integer  [default: 1, ref: > organisation.id]
 	"audit_id" integer   [ref: > audit.id]
 	"is_voided" boolean  [default: false]
 	"enrolment_summary_rule" text [note: 'Blob of the rule. About the rule - https://avni.readme.io/docs/writing-rules#1-enrolment-summary-rule']
 	"enrolment_eligibility_check_rule" text [note: 'Blob of the rule. About the rule - https://avni.readme.io/docs/writing-rules#7-enrolment-eligibility-check-rule']
 	"active" boolean  [default: true]
 	Note: 'Explained here in section 2 and 4 - https://avni.readme.io/docs/avnis-domain-model-of-field-based-work'
 }

enum subject_type_type {
    Group
    Individual
    Person
    Household
}

 Table "subject_type" {
   	"id" integer  [default: `nextval('subject_type_id_seq'::regclass)`]
   	"uuid" varchar(255)
   	"name" varchar(255)
   	"organisation_id" bigint [ref: > organisation.id]
   	"is_voided" boolean  [default: false]
   	"audit_id" bigint [ref: > audit.id]
   	"version" integer  [default: 1]
   	"is_group" boolean  [default: false]
   	"is_household" boolean  [default: false]
   	"active" boolean  [default: true]
   	"type" subject_type_type
   	Note: 'Explained in section 2 and 4 - https://avni.readme.io/docs/avnis-domain-model-of-field-based-work. Note that, apart from Individual and Person subject types, Avni also models groups and household using subject_type table.'
   }

enum form_type {
    IndividualProfile
    ProgramEncounterCancellation
    Encounter
    ProgramEnrolment
    ProgramEncounter
    ProgramExit
    ChecklistItem
    IndividualEncounterCancellation
}

 Table "encounter_type" {
 	"id" integer  [default: `nextval('encounter_type_id_seq'::regclass)`]
 	"name" varchar(255)
 	"concept_id" bigint [ref: > concept.id, note: 'UNUSED']
 	"uuid" varchar(255)
 	"version" integer
 	"organisation_id" integer  [default: 1, ref: > organisation.id]
 	"audit_id" integer   [ref: > audit.id]
 	"is_voided" boolean  [default: false]
 	"encounter_eligibility_check_rule" text [note: 'Rule code as blob. About the rule - https://avni.readme.io/docs/writing-rules#8-encounter-eligibility-check-rule']
 	"active" boolean  [default: true]
 	Note: 'Explained here in section 2 and 4 - https://avni.readme.io/docs/avnis-domain-model-of-field-based-work'
 }

 Table "group_role" {
   	"id" integer  [default: `nextval('group_role_id_seq'::regclass)`]
   	"uuid" varchar(255)
   	"group_subject_type_id" integer [ref: > subject_type.id]
   	"role" text
   	"member_subject_type_id" integer   [ref: > subject_type.id]
   	"is_primary" boolean  [default: false]
   	"maximum_number_of_members" integer
   	"minimum_number_of_members" integer
   	"organisation_id" integer   [ref: > organisation.id]
   	"audit_id" integer   [ref: > audit.id]
   	"is_voided" boolean  [default: false]
   	"version" integer
   	Note: 'Roles subject play within a group. e.g. Head-of-household, family-member are different roles within a household. Or captain, vice-captain within a sports team.'
   }

 Table "form" {
 	"id" integer  [default: `nextval('form_id_seq'::regclass)`]
 	"name" varchar(255)
 	"form_type" form_type [note: 'varchar(255)']
 	"uuid" varchar(255)
 	"version" integer
 	"organisation_id" integer  [default: 1, ref: > organisation.id]
 	"audit_id" integer   [ref: > audit.id]
 	"is_voided" boolean  [default: false]
 	"decision_rule" text [note: 'Rule code as blob. About the rule - https://avni.readme.io/docs/writing-rules#5-decision-rule']
 	"validation_rule" text [note: 'Rule code as blob. About the rule - https://avni.readme.io/docs/writing-rules#6-validation-rule']
 	"visit_schedule_rule" text [note: 'Rule code as blob. About the rule - https://avni.readme.io/docs/writing-rules#4-visit-schedule-rule']
 	"checklists_rule" text [note: 'Rule code as blob. About the rule - https://avni.readme.io/docs/writing-rules#9-checklists-rule']
 }

 Table "form_element" {
 	"id" integer  [default: `nextval('form_element_id_seq'::regclass)`]
 	"name" varchar(255)
 	"display_order" number [note: 'Display order within a form element group']
 	"is_mandatory" boolean  [default: false]
 	"key_values" jsonb
 	"concept_id" bigint   [ref: > concept.id]
 	"form_element_group_id" bigint   [ref: > form_element_group.id]
 	"uuid" varchar(255)
 	"version" integer
 	"organisation_id" integer  [default: 1, ref: > organisation.id]
 	"type" varchar(1024) [default: "NULL::character varying"]
 	"valid_format_regex" varchar(255)
 	"valid_format_description_key" varchar(255) [note: 'Message key to use when the validation based on valid_format_regex fails']
 	"audit_id" integer   [ref: > audit.id]
 	"is_voided" boolean  [default: false]
 	"rule" text [note: 'Rule code as blob. About the rule - https://avni.readme.io/docs/writing-rules#2-form-element-rule']
 	Note: 'Represents a field in the form element group or page'
 }

 Table "form_element_group" {
 	"id" integer  [default: `nextval('form_element_group_id_seq'::regclass)`]
 	"name" varchar(255)
 	"form_id" bigint [ref: > form.id]
 	"uuid" varchar(255)
 	"version" integer
 	"display_order" number  [default: "-1", note: 'display order of the form element group within a form (page number)']
 	"display" varchar(100) [note: 'Text displayed to the user as title of this form element group']
 	"organisation_id" integer  [default: 1, ref: > organisation.id]
 	"audit_id" integer   [ref: > audit.id]
 	"is_voided" boolean  [default: false]
 	"rule" text [note: 'Rule code as blob. About the rule - https://avni.readme.io/docs/writing-rules#3-form-element-group-rule']
 	Note: 'Represents a page in the form'
 }

 Table "form_mapping" {
  	"id" integer  [default: `nextval('form_mapping_id_seq'::regclass)`]
  	"form_id" bigint [ref: > form.id, note: "Form for which this mapping is defined"]
  	"uuid" varchar(255)
  	"version" integer
  	"entity_id" bigint [note: 'id of subject_type, encounter_type or program for which this form is to be used']
  	"observations_type_entity_id" integer [note: 'id of encounter_type or program']
  	"organisation_id" integer  [default: 1, ref: > organisation.id]
  	"audit_id" integer   [ref: > audit.id]
  	"is_voided" boolean  [default: false]
  	"subject_type_id" integer [ref: > subject_type.id]
  	Note: 'Maps the form to subject_type, encounter_type or program. More documentation here - https://avni.readme.io/docs/form-mapping'
  }

Table "non_applicable_form_element" {
 	"id" integer  [default: `nextval('non_applicable_form_element_id_seq'::regclass)`]
 	"organisation_id" bigint [ref: > organisation.id]
 	"form_element_id" bigint [ref: > form_element.id]
 	"is_voided" boolean  [default: false]
 	"version" integer  [default: 0]
 	"audit_id" integer   [ref: > audit.id]
 	"uuid" varchar(255)
 	Note: 'This table is used for form elements which are removed. This table is design wise redundant, though still used. It existed because earlier Avni allowed forms to be shared across organisations, hence it needed to maintain for which organisation form element was removed.'
 }

 Table "operational_encounter_type" {
 	"id" integer  [default: `nextval('operational_encounter_type_id_seq'::regclass)`]
 	"uuid" varchar(255)
 	"organisation_id" integer [ref: > organisation.id]
 	"encounter_type_id" integer [ref: > encounter_type.id]
 	"version" integer
 	"audit_id" integer   [ref: > audit.id]
 	"name" varchar(255)
 	"is_voided" boolean  [default: false]
 	Note: 'This table is design wise redundant, though still used. It existed because earlier Avni allowed encounter types to be shared across organisations, hence it needed to maintain which organisations are using the encounter type.'
 }

 Table "operational_program" {
 	"id" integer  [default: `nextval('operational_program_id_seq'::regclass)`]
 	"uuid" varchar(255)
 	"organisation_id" integer [ref: > organisation.id]
 	"program_id" integer [ref: > program.id]
 	"version" integer
 	"audit_id" integer   [ref: > audit.id]
 	"name" varchar(255)
 	"is_voided" boolean  [default: false]
 	"program_subject_label" text
 	Note: 'This table is design wise redundant, though still used. It existed because earlier Avni allowed program to be shared across organisations, hence it needed to maintain which organisations are using the which program.'
 }

 Table "operational_subject_type" {
 	"id" integer  [default: `nextval('operational_subject_type_id_seq'::regclass)`]
 	"uuid" varchar(255)
 	"name" varchar(255)
 	"subject_type_id" integer [ref: > subject_type.id]
 	"organisation_id" bigint [ref: > organisation.id]
 	"is_voided" boolean  [default: false]
 	"audit_id" bigint [ref: > audit.id]
 	"version" integer  [default: 1]
 	Note: 'This table is design wise redundant, though still used. It existed because earlier Avni allowed subject type to be shared across organisations, hence it needed to maintain which organisations are using which subject type.'
 }

 TableGroup "User-defined data model" {
    concept
    concept_answer
    form
    form_element
    non_applicable_form_element
    form_element_group
    subject_type
    program
    encounter_type
    group_role
    operational_encounter_type
    operational_program
    operational_subject_type
 }



// Pre-packaged data

 Table "individual_relation" {
 	"id" smallint  [default: `nextval('individual_relation_id_seq'::regclass)`]
 	"uuid" varchar(255)
 	"name" varchar(255)
 	"is_voided" boolean  [default: false]
 	"organisation_id" integer [ref: > organisation.id]
 	"version" integer
 	"audit_id" integer   [ref: > audit.id]
 	Note: 'You can setup relations like Son, Daughter, Mother, Cousin etc, here.'
 }

 Table "gender" {
  	"id" smallint  [default: `nextval('gender_id_seq'::regclass)`]
  	"uuid" varchar(255)
  	"name" varchar(255)
  	"concept_id" bigint [ref: > concept.id, note: 'Deprecated and unused']
  	"version" integer
  	"audit_id" integer   [ref: > audit.id]
  	"is_voided" boolean  [default: false]
  	"organisation_id" integer [ref: > organisation.id]
  }

Table "individual_relation_gender_mapping" {
 	"id" smallint  [default: `nextval('individual_relation_gender_mapping_id_seq'::regclass)`]
 	"uuid" varchar(255)
 	"relation_id" smallint [ref: > individual_relation.id]
 	"gender_id" smallint [ref: > gender.id]
 	"is_voided" boolean  [default: false]
 	"organisation_id" integer [ref: > organisation.id]
 	"version" integer
 	"audit_id" integer   [ref: > audit.id]
 	Note: 'Specifying the gender which a relation can assume. e.g. Mother should be Female. Or Spouse can be Male, Female, Other.'
 }

 Table "individual_relationship_type" {
 	"id" smallint  [default: `nextval('individual_relationship_type_id_seq'::regclass)`]
 	"uuid" varchar(255)
 	"name" varchar(255) [note: 'e.g. mother-daughter']
 	"individual_a_is_to_b_relation_id" smallint [ref: > individual_relation.id]
 	"individual_b_is_to_a_relation_id" smallint [ref: > individual_relation.id]
 	"is_voided" boolean  [default: false]
 	"organisation_id" integer [ref: > organisation.id]
 	"version" integer
 	"audit_id" integer   [ref: > audit.id]
 	Note: 'These are paired relationship names. individual_a_is_to_b_relation_id and individual_b_is_to_a_relation_id columns refer to each individual relation. e.g. mother-daughter.'
 }

 TableGroup "Core master data" {
    individual_relation
    gender
    individual_relation_gender_mapping
    individual_relationship_type
 }



// Checklist

 Table "checklist" {
 	"id" integer  [default: `nextval('checklist_id_seq'::regclass)`]
 	"program_enrolment_id" bigint [ref: > program_enrolment.id]
 	"uuid" varchar(255)
 	"version" integer
 	"base_date" timestamp
 	"organisation_id" integer  [default: 1 ,ref: > organisation.id]
 	"audit_id" integer   [ref: > audit.id]
 	"is_voided" boolean  [default: false]
 	"checklist_detail_id" integer   [ref: > checklist_detail.id]
 }

 Table "checklist_detail" {
 	"id" smallint  [default: `nextval('checklist_detail_id_seq'::regclass)`]
 	"uuid" varchar(255)
 	"version" integer
 	"audit_id" integer   [ref: > audit.id]
 	"name" varchar
 	"is_voided" boolean  [default: false]
 	"organisation_id" integer   [ref: > organisation.id]
 }

 Table "checklist_item" {
 	"id" integer  [default: `nextval('checklist_item_id_seq'::regclass)`]
 	"completion_date" timestamp
 	"checklist_id" bigint   [ref: > checklist.id]
 	"uuid" varchar(255)
 	"version" integer
 	"organisation_id" integer  [default: 1 ,ref: > organisation.id]
 	"audit_id" integer   [ref: > audit.id]
 	"is_voided" boolean  [default: false]
 	"observations" jsonb
 	"checklist_item_detail_id" integer   [ref: > checklist_item_detail.id]
 }

 Table "checklist_item_detail" {
 	"id" smallint  [default: `nextval('checklist_item_detail_id_seq'::regclass)`]
 	"uuid" varchar(255)
 	"version" integer
 	"audit_id" integer   [ref: > audit.id]
 	"form_id" integer   [ref: > form.id]
 	"concept_id" integer   [ref: > concept.id]
 	"checklist_detail_id" integer   [ref: > checklist_detail.id]
// 	"status" jsonb  [default: '{}'::jsonb]
    "status" jsonb
 	"is_voided" boolean  [default: false]
 	"organisation_id" integer   [ref: > organisation.id]
 	"dependent_on" integer
 	"schedule_on_expiry_of_dependency" boolean  [default: false]
 	"min_days_from_start_date" smallint
 	"min_days_from_dependent" integer
 	"expires_after" integer
 }

TableGroup Checklist {
    checklist
    checklist_item
    checklist_item_detail
    checklist_detail
}


// Rules

 Table "deps_saved_ddl" {
 	"deps_id" integer  [default: `nextval('deps_saved_ddl_deps_id_seq'::regclass)`]
 	"deps_view_schema" varchar(255)
 	"deps_view_name" varchar(255)
 	"deps_ddl_to_run" text
 }

Table "rule" {
 	"id" smallint  [default: `nextval('rule_id_seq'::regclass)`]
 	"uuid" varchar(255)
 	"version" integer
 	"audit_id" integer   [ref: > audit.id]
 	"type" varchar
 	"rule_dependency_id" integer [ref: > rule_dependency.id]
 	"name" varchar
 	"fn_name" varchar
 	"data" jsonb
 	"organisation_id" integer [ref: > organisation.id]
 	"execution_order" number  [default: 10000.0]
 	"is_voided" boolean  [default: false]
 	"entity" jsonb
 }

 Table "rule_dependency" {
 	"id" smallint  [default: `nextval('rule_dependency_id_seq'::regclass)`]
 	"uuid" varchar(255)
 	"version" integer
 	"audit_id" integer   [ref: > audit.id]
 	"checksum" varchar
 	"code" text
 	"organisation_id" integer [ref: > organisation.id]
 	"is_voided" boolean  [default: false]
 }

TableGroup Rules {
    rule
    rule_dependency
    deps_saved_ddl
}



// Transaction data

 Table "encounter" {
 	"id" integer  [default: `nextval('encounter_id_seq'::regclass)`]
 	"observations" jsonb [note: 'Please check here - https://dash.readme.io/project/avni/v2.0/docs/observation-data-model']
 	"encounter_date_time" timestamp
 	"encounter_type_id" integer [ref: > encounter_type.id]
 	"individual_id" integer   [ref: > individual.id]
 	"uuid" varchar(255)
 	"version" integer
 	"organisation_id" integer  [default: 1, ref: > organisation.id]
 	"is_voided" boolean  [default: false]
 	"audit_id" integer   [ref: > audit.id]
 	"encounter_location" point [note: 'Geolocation of where the encounter took place']
 	"earliest_visit_date_time" timestamp   [note: 'Scheduled date of the encounter. This is nullable because the user can perform non scheduled encounters also.']
 	"max_visit_date_time" timestamp   [note: 'Date after which the encounter expires']
 	"cancel_date_time" timestamp  [note: 'DateTime when this scheduled encounter was cancelled']
 	"cancel_observations" jsonb  [note: 'Observations made when cancelling the encounter. Please check here - https://dash.readme.io/project/avni/v2.0/docs/observation-data-model']
 	"cancel_location" point [note: 'Geolocation of where the cancellation took place']
 	"name" text
 	"legacy_id" varchar
 }

  Table "group_subject" {
  	"id" integer  [default: `nextval('group_subject_id_seq'::regclass)`]
  	"uuid" varchar(255)
  	"group_subject_id" integer [ref: > individual.id]
  	"member_subject_id" integer [ref: > individual.id]
  	"group_role_id" integer [ref: > group_role.id]
  	"membership_start_date" timestamp
  	"membership_end_date" timestamp
  	"organisation_id" integer [ref: > organisation.id]
  	"audit_id" integer   [ref: > audit.id]
  	"is_voided" boolean  [default: false]
  	"version" integer
  	Note: 'Group of individuals/subjects'
  }

Table "individual" {
 	"id" integer  [default: `nextval('individual_id_seq'::regclass)`]
 	"uuid" varchar(255)
 	"address_id" bigint [ref: > address_level.id]
 	"observations" jsonb  [note: 'For internal structure of the observations - https://dash.readme.io/project/avni/v2.0/docs/observation-data-model']
 	"version" integer
 	"date_of_birth" date
 	"date_of_birth_verified" boolean
 	"gender_id" bigint [ref: > gender.id]
 	"registration_date" date  [default: '2017-01-01']
 	"organisation_id" integer  [default: 1, ref: > organisation.id]
 	"first_name" varchar(256)
 	"last_name" varchar(256)
 	"is_voided" boolean  [default: false]
 	"audit_id" integer   [ref: > audit.id]
 	"registration_location" point [note: 'Geolocation of where the registration took place']
 	"subject_type_id" integer [ref: > subject_type.id]
 	"legacy_id" varchar
 }

  Table "program_encounter" {
  	"id" integer  [default: `nextval('program_encounter_id_seq'::regclass)`]
  	"observations" jsonb [note: 'For internal structure of the observations - https://dash.readme.io/project/avni/v2.0/docs/observation-data-model']
  	"earliest_visit_date_time" timestamp [note: 'Scheduled date of the encounter. This is nullable because the user can perform non scheduled encounters also.']
  	"encounter_date_time" timestamp
  	"program_enrolment_id" integer [ref: > program_enrolment.id]
  	"uuid" varchar(255)
  	"version" integer
  	"encounter_type_id" integer  [default: 1, ref: > encounter_type.id]
  	"name" varchar(255) [note: 'If this specific encounter was given a title on top of encounter type name. e.g. ANC-1, ANC-2 for ANC type encounter types']
  	"max_visit_date_time" timestamp  [note: 'Date after which the encounter expires']
  	"organisation_id" integer  [default: 1, ref: > organisation.id]
  	"cancel_date_time" timestamp [note: 'DateTime when this scheduled encounter was cancelled']
  	"cancel_observations" jsonb [note: 'Observations made when cancelling the encounter. For internal structure of the observations - https://dash.readme.io/project/avni/v2.0/docs/observation-data-model']
  	"audit_id" integer   [ref: > audit.id]
  	"is_voided" boolean  [default: false]
  	"encounter_location" point [note: 'Geolocation of where the encounter took place']
  	"cancel_location" point [note: 'Geolocation of where the cancellation of encounter took place']
  	"legacy_id" varchar
  }

  Table "program_enrolment" {
  	"id" integer  [default: `nextval('program_enrolment_id_seq'::regclass)`]
  	"program_id" smallint [ref: > program.id]
  	"individual_id" bigint [ref: > individual.id]
  	"program_outcome_id" smallint [note: 'Unused column']
  	"observations" jsonb [note: 'Please check here - https://dash.readme.io/project/avni/v2.0/docs/observation-data-model']
  	"program_exit_observations" jsonb [note: 'Please check here - https://dash.readme.io/project/avni/v2.0/docs/observation-data-model']
  	"enrolment_date_time" timestamp
  	"program_exit_date_time" timestamp
  	"uuid" varchar(255)
  	"version" integer
  	"organisation_id" integer  [default: 1, ref: > organisation.id]
  	"audit_id" integer   [ref: > audit.id]
  	"is_voided" boolean  [default: false]
  	"enrolment_location" point [note: 'Geolocation of where the enrolment took place']
  	"exit_location" point [note: 'Geolocation of where the enrolment exit took place']
  	"legacy_id" varchar
  }

 Table "individual_relationship" {
 	"id" integer  [default: `nextval('individual_relationship_id_seq'::regclass)`]
 	"uuid" varchar(255)
 	"individual_a_id" bigint [ref: > individual.id]
 	"individual_b_id" bigint [ref: > individual.id]
 	"relationship_type_id" smallint [ref: > individual_relationship_type.id]
 	"enter_date_time" timestamp [note: 'When the relationship between two individuals was established']
 	"exit_date_time" timestamp [note: 'When the relationship between two individuals was ended']
 	"exit_observations" jsonb [note: 'Data captured in forms when exiting the relationship. For internal structure of the observations - https://dash.readme.io/project/avni/v2.0/docs/observation-data-model']
 	"is_voided" boolean  [default: false]
 	"organisation_id" integer [ref: > organisation.id]
 	"version" integer
 	"audit_id" integer   [ref: > audit.id]
 	Note: 'Relationship between two individuals/subjects'
 }

 Table "subject_migration" {
  	"id" integer
  	"uuid" varchar(255)
  	"individual_id" integer
  	"old_address_level_id" integer
  	"new_address_level_id" integer
  	"organisation_id" integer
  	"audit_id" integer
  	"is_voided" boolean  [default: false]
  	"version" integer
  	"created_by_id" bigint
  	"last_modified_by_id" bigint
  	"created_date_time" timestamp
  	"last_modified_date_time" timestamp
  	"old_sync_concept_1_value" text
  	"new_sync_concept_1_value" text
  	"old_sync_concept_2_value" text
  	"new_sync_concept_2_value" text
  	"subject_type_id" integer
  	"manual_update_history" text
  }

  Table "subject_program_eligibility" {
   	"id" integer
   	"organisation_id" integer
   	"uuid" varchar(255) [default: `uuid_generate_v4()`]
   	"is_voided" boolean  [default: false]
   	"version" integer
   	"created_by_id" bigint
   	"last_modified_by_id" bigint
   	"created_date_time" timestamp
   	"last_modified_date_time" timestamp
   	"subject_id" bigint
   	"program_id" integer
   	"is_eligible" boolean
   	"check_date" timestamp
   	"observations" jsonb
   }

   Table "user_subject_assignment" {
    	"id" integer
    	"uuid" varchar(255)
    	"user_id" integer
    	"subject_id" integer
    	"organisation_id" integer
    	"is_voided" boolean  [default: false]
    	"version" integer
    	"created_by_id" bigint
    	"last_modified_by_id" bigint
    	"created_date_time" timestamp
    	"last_modified_date_time" timestamp
    }

TableGroup "Transaction data" {
    individual
    program_enrolment
    encounter
    program_encounter
    group_subject
    individual_relationship
    subject_migration
    subject_program_eligibility
}


// Access Control

  Table "privilege" {
  	"id" integer  [default: `nextval('privilege_id_seq'::regclass)`]
  	"uuid" varchar(255)
  	"name" varchar(255)
  	"description" text
  	"entity_type" varchar(255)
  	"is_voided" boolean  [default: false]
  	"created_date_time" timestamp
  	"last_modified_date_time" timestamp
  }


 Table "group_privilege" {
 	"id" integer  [default: `nextval('group_privilege_id_seq'::regclass)`]
 	"uuid" varchar(255)
 	"group_id" integer [ref: > groups.id]
 	"privilege_id" integer   [ref: > privilege.id]
 	"subject_type_id" integer   [ref: > subject_type.id]
 	"program_id" integer   [ref: > program.id]
 	"program_encounter_type_id" integer   [ref: > encounter_type.id]
 	"encounter_type_id" integer   [ref: > encounter_type.id]
 	"checklist_detail_id" integer   [ref: > checklist_detail.id]
 	"allow" boolean  [default: false]
 	"is_voided" boolean  [default: false]
 	"version" integer
 	"organisation_id" integer   [ref: > organisation.id]
 	"audit_id" integer   [ref: > audit.id]
 }

 Table "groups" {
   	"id" integer  [default: `nextval('groups_id_seq'::regclass)`]
   	"uuid" varchar(255)
   	"name" varchar(255)
   	"is_voided" boolean  [default: false]
   	"version" integer
   	"organisation_id" integer [ref: > organisation.id]
   	"audit_id" integer   [ref: > audit.id]
   	"has_all_privileges" boolean  [default: false]
   }

TableGroup "Access Control" {
    groups
    privilege
    group_privilege
}



// Identifiers

 Table "identifier_assignment" {
 	"id" integer  [default: `nextval('identifier_assignment_id_seq'::regclass)`]
 	"uuid" varchar(255)
 	"identifier_source_id" integer   [ref: > identifier_source.id]
 	"identifier" text
 	"assignment_order" integer
 	"assigned_to_user_id" integer   [ref: > users.id]
 	"individual_id" integer   [ref: > individual.id]
 	"program_enrolment_id" integer   [ref: > program_enrolment.id]
 	"version" integer
 	"is_voided" boolean  [default: false]
 	"organisation_id" integer  [default: 1, ref: > organisation.id]
 	"audit_id" integer   [ref: > audit.id]
 }

 Table "identifier_source" {
 	"id" integer  [default: `nextval('identifier_source_id_seq'::regclass)`]
 	"uuid" varchar(255)
 	"name" varchar(255)
 	"type" text
 	"catchment_id" integer   [ref: > catchment.id]
 	"minimum_balance" integer  [default: 20]
 	"batch_generation_size" integer  [default: 100]
 	"options" jsonb  [default: '{}']
 	"version" integer
 	"is_voided" boolean  [default: false]
 	"organisation_id" integer  [default: 1, ref: > organisation.id]
 	"audit_id" integer   [ref: > audit.id]
 	"min_length" integer  [default: 0]
 	"max_length" integer  [default: 0]
 }

 Table "identifier_user_assignment" {
 	"id" integer  [default: `nextval('identifier_user_assignment_id_seq'::regclass)`]
 	"uuid" varchar(255)
 	"identifier_source_id" integer   [ref: > identifier_source.id]
 	"assigned_to_user_id" integer   [ref: > users.id]
 	"identifier_start" text
 	"identifier_end" text
 	"last_assigned_identifier" text
 	"version" integer
 	"is_voided" boolean  [default: false]
 	"organisation_id" integer  [default: 1, ref: > organisation.id]
 	"audit_id" integer   [ref: > audit.id]
 }

TableGroup "Auto generated identifiers" {
    identifier_assignment
    identifier_source
    identifier_user_assignment
}


// Application settings

Table "menu_item" {
 	"id" integer
 	"organisation_id" integer
 	"uuid" varchar(255) [default: `uuid_generate_v4()`]
 	"is_voided" boolean  [default: false]
 	"version" integer
 	"created_by_id" bigint
 	"last_modified_by_id" bigint
 	"created_date_time" timestamp
 	"last_modified_date_time" timestamp
 	"display_key" varchar(255)
 	"type" varchar(100)
 	"menu_group" varchar(255)
 	"icon" varchar(255)
 	"link_function" varchar(10000)
 }

 Table "organisation_config" {
 	"id" integer  [default: `nextval('organisation_config_id_seq'::regclass)`]
 	"uuid" varchar(255)
 	"organisation_id" bigint
 	"settings" jsonb
 	"audit_id" bigint
 	"version" integer  [default: 1]
 	"is_voided" boolean  [default: false]
 	"worklist_updation_rule" text
 }


// Translations

 Table "platform_translation" {
 	"id" integer  [default: `nextval('platform_translation_id_seq'::regclass)`]
 	"uuid" varchar(255)
 	"translation_json" jsonb
 	"is_voided" boolean  [default: false]
 	"platform" varchar(255)
 	"language" varchar(255)
 	"created_date_time" timestamp
 	"last_modified_date_time" timestamp
 }

 Table "translation" {
 	"id" integer  [default: `nextval('translation_id_seq'::regclass)`]
 	"uuid" varchar(255)
 	"organisation_id" bigint [ref: > organisation.id]
 	"audit_id" bigint [ref: > audit.id]
 	"version" integer  [default: 1]
 	"translation_json" jsonb
 	"is_voided" boolean  [default: false]
 	"language" varchar(255)
 }

TableGroup "Translations" {
    organisation_config
    platform_translation
    translation
}



// Telemetry and logs
 Table "rule_failure_log" {
 	"id" integer  [default: `nextval('rule_failure_log_id_seq'::regclass)`]
 	"uuid" varchar(255)
 	"form_id" varchar(255)
 	"rule_type" varchar(255)
 	"entity_type" varchar(255)
 	"entity_id" varchar(255)
 	"error_message" varchar(255)
 	"stacktrace" text
 	"source" varchar(255)
 	"audit_id" integer   [ref: > audit.id]
 	"is_voided" boolean  [default: false]
 	"version" integer
 	"organisation_id" bigint   [ref: > organisation.id]
 }

 Table "rule_failure_telemetry" {
 	"id" integer  [default: `nextval('rule_failure_telemetry_id_seq'::regclass)`]
 	"uuid" varchar(255)
 	"user_id" integer   [ref: > users.id]
 	"organisation_id" bigint   [ref: > organisation.id]
 	"version" integer  [default: 1]
 	"rule_uuid" varchar(255)
 	"individual_uuid" varchar(255)
 	"error_message" varchar(255)
 	"stacktrace" text
 	"error_date_time" timestamp
 	"close_date_time" timestamp
 	"is_closed" boolean  [default: false]
 	"audit_id" bigint   [ref: > audit.id]
 }

 Table "sync_telemetry" {
 	"id" integer  [default: `nextval('sync_telemetry_id_seq'::regclass)`]
 	"uuid" varchar(255)
 	"user_id" integer   [ref: > users.id]
 	"organisation_id" bigint   [ref: > organisation.id]
 	"version" integer  [default: 1]
 	"sync_status" varchar(255)
 	"sync_start_time" timestamp
 	"sync_end_time" timestamp
 	"entity_status" jsonb
 	"device_name" varchar(255)
 	"android_version" varchar(255)
 	"app_version" varchar(255)
 }

 Table "video_telemetric" {
  	"id" integer  [default: `nextval('video_telemetric_id_seq'::regclass)`]
  	"uuid" varchar(255)
  	"video_start_time" number
  	"video_end_time" number
  	"player_open_time" timestamp
  	"player_close_time" timestamp
  	"video_id" integer [ref: > video.id]
  	"user_id" integer [ref: > users.id]
  	"created_datetime" timestamp
  	"organisation_id" integer [ref: > organisation.id]
  	"is_voided" boolean  [default: false]
  }

  TableGroup "User telemetry and events" {
    rule_failure_log
    rule_failure_telemetry
    sync_telemetry
    video_telemetric
  }


// Ungrouped
   Table "video" {
     	"id" integer  [default: `nextval('video_id_seq'::regclass)`]
     	"version" integer  [default: 1]
     	"audit_id" bigint [ref: > audit.id]
     	"uuid" varchar(255)
     	"organisation_id" bigint [ref: > organisation.id]
     	"title" varchar(255)
     	"file_path" varchar(255)
     	"description" varchar(255)
     	"duration" integer
     	"is_voided" boolean  [default: false]
     }
